<svg width="350" height="350" viewBox="0 0 350 350" fill="none" xmlns="http://www.w3.org/2000/svg">
<circle cx="175" cy="175" r="175" fill="#221438"/>
<path d="M175 4.73956C141.731 24.4919 120.899 31.201 80.9375 37.5521L72.9167 63.4375L274.167 70L269.792 37.5521C226.333 30.961 205.967 23.4017 175 4.73956Z" fill="url(#paint0_linear_4_25)"/>
<path d="M84.2188 60.1563L48.125 76.5625L80.9375 35.7292L84.2188 60.1563Z" fill="#C52E6E"/>
<path d="M301.875 76.5625L268.333 35.7292V60.1563L301.875 76.5625Z" fill="#C52E6E"/>
<path d="M303.698 77.6562H185.573H47.0312L175.365 8.75L303.698 77.6562Z" fill="#F1577E"/>
<path d="M34.6354 91.1458L41.5625 76.5625L49.5833 79.1146V166.25L41.5625 187.031L25.1562 140L34.6354 91.1458Z" fill="url(#paint1_linear_4_25)"/>
<path d="M309.896 79.1146L301.875 76.5625V178.281L313.906 187.031L320.833 131.615L309.896 79.1146Z" fill="url(#paint2_linear_4_25)"/>
<path d="M41.5625 240.26L55.4167 227.5L71.0937 219.844L41.5625 185.573L29.1667 155.312L7.29166 133.437L10.2083 166.25L14.2187 195.052L41.5625 240.26Z" fill="url(#paint3_radial_4_25)"/>
<path d="M270.521 242.083L308.802 182.292L321.198 163.333L329.583 130.521L344.167 133.437L336.875 195.052L311.354 236.979L270.521 242.083Z" fill="url(#paint4_radial_4_25)"/>
<path d="M30.2604 132.344H5.83334L39.0104 181.562L30.2604 132.344Z" fill="#F45780"/>
<path d="M314.271 175.365L342.708 132.344L320.833 129.427L314.271 175.365Z" fill="#F45780"/>
<path d="M28.8021 133.437L34.6354 91.1458L7.29166 133.437H28.8021Z" fill="#8F215E"/>
<path d="M321.198 133.437L309.167 79.4792L345.26 133.437H321.198Z" fill="#8F215E"/>
<path d="M67.4479 161.875L59.7917 172.813L99.5313 244.635L265.781 231.51V203.802L292.396 178.646L284.375 166.979H257.031L269.427 127.24L233.698 130.885L82.3958 127.24L89.3229 157.865L67.4479 161.875Z" fill="#FFF4E0"/>
<path d="M242.812 172.812L260.677 140.365L275.26 130.156V152.396L309.167 184.115L305.156 200.885L284.01 220.573L278.177 219.479L289.844 195.052L270.156 213.281L256.667 215.469L246.823 217.656L245 210.365L286.927 175.729L281.823 170.625L242.812 172.812Z" fill="#FDE1B9"/>
<path d="M120.313 79.1146L129.063 74.375L127.604 109.375L162.24 102.083L135.99 142.552L120.313 144.01L91.875 132.708L87.1354 141.094L64.5313 122.135L58.6979 112.656L88.5938 99.8958L120.313 79.1146Z" fill="#FEE3B8"/>
<path d="M232.969 82.3958L218.385 72.9167V83.4896L228.594 109.375L205.26 115.208L206.719 143.281L288.75 125.417V114.844L265.417 101.719L232.969 82.3958Z" fill="#FADBAC"/>
<path d="M273.802 151.667L283.281 125.417V122.5L262.865 138.542L273.802 151.667Z" fill="#FBC094"/>
<path d="M139.635 88.9583L133.073 96.9792L120.677 109.375L127.604 76.9271L122.135 74.7396L128.333 68.9062L139.635 88.9583Z" fill="#EC727F"/>
<path d="M229.323 109.375L215.833 96.9792L221.302 69.6354L225.677 74.0104L221.302 76.9271L229.323 109.375Z" fill="#EC727F"/>
<path d="M262.865 140V130.885L279.635 126.875L262.865 140Z" fill="#FED8AB"/>
<path d="M120.677 109.375L133.438 95.5208L141.823 119.219L120.677 109.375Z" fill="#FBA181"/>
<path d="M229.323 109.375L215.469 96.6146L207.448 119.219L229.323 109.375Z" fill="#FBA181"/>
<path d="M220.208 90.0521L192.135 103.906L207.448 67.4479L217.656 54.3229L224.219 72.1875L220.208 77.6563V90.0521Z" fill="#E89AD9"/>
<path d="M123.958 72.1875L131.979 54.3229L142.917 67.4479L168.438 105.365L138.542 94.0625L130.521 77.6563L123.958 72.1875Z" fill="#E89AD9"/>
<path d="M204.896 52.5C194.182 41.0151 187.74 31.6726 175.365 9.11456C164.869 28.281 158.569 38.2431 145.469 52.5V90.0521L202.708 87.8646L204.896 52.5Z" fill="#190F31"/>
<path d="M110.104 122.865L65.625 116.667L112.656 109.01L110.104 122.865Z" fill="#FAC995"/>
<path d="M273.802 111.562L238.073 109.01L239.531 122.5L284.375 116.302L273.802 111.562Z" fill="#FAC995"/>
<path d="M63.4375 169.896L115.573 219.844L117.396 233.333L55.0521 235.156L41.1979 184.844L73.6458 152.396L89.6875 136.719L108.281 176.094L63.4375 169.896Z" fill="#FBDFAF"/>
<path d="M133.802 153.49L94.4271 133.802L134.896 141.823L133.802 153.49Z" fill="#FFF3E2"/>
<path d="M257.396 132.344L215.833 154.219L216.563 140.365L257.396 132.344Z" fill="#FFF3E2"/>
<path d="M121.406 81.3021L112.656 109.01L65.625 116.667L121.406 81.3021Z" fill="#F69C81"/>
<path d="M237.708 109.01L228.594 81.3021L275.26 111.927L237.708 109.01Z" fill="#F69C81"/>
<path d="M87.8646 140.729L63.4375 118.49L73.2812 152.76L87.8646 140.729Z" fill="#FCC698"/>
<path d="M299.688 222.031L310.625 236.979L297.135 258.49L267.604 261.406V257.031L299.688 222.031Z" fill="#FBC48E"/>
<path d="M73.2813 244.635L50.6771 222.031L40.8333 236.979L52.1354 246.458L73.2813 244.635Z" fill="#FBC48E"/>
<path d="M300.052 222.031L306.25 197.969L282.552 219.115L261.771 203.802L257.76 226.042L272.708 251.927L300.052 222.031Z" fill="#FBD0A3"/>
<path d="M51.7708 223.125L44.4792 201.615L67.4479 219.115L88.5937 203.802L94.7917 226.042L79.4792 250.833L51.7708 223.125Z" fill="#FBD0A3"/>
<path d="M68.5417 219.479L58.3333 193.229L71.4583 196.146L68.5417 219.479Z" fill="#FA9D79"/>
<path d="M279.635 196.146L292.396 193.229L281.823 218.75L279.635 196.146Z" fill="#FA9D79"/>
<path d="M88.5937 203.802L71.4583 196.146L68.5417 219.115L88.5937 203.802Z" fill="#FABA8C"/>
<path d="M281.823 218.75L279.635 196.146L261.771 203.802L281.823 218.75Z" fill="#FABA8C"/>
<path d="M177.917 105L200.521 84.5833L180.833 72.1875L174.635 64.5312L169.167 72.1875L148.75 84.5833L177.917 105Z" fill="#FFEFE0"/>
<path d="M207.812 86.7708L203.802 55.0521L200.156 83.8542L175 103.906L149.479 83.8542L145.469 53.5938L144.375 76.1979L141.094 83.8542L174.271 121.771L207.812 86.7708Z" fill="#D5ACE4"/>
<path d="M187.76 96.9792L174.635 64.8958L162.604 96.9792L174.635 114.115L187.76 96.9792Z" fill="url(#paint5_linear_4_25)"/>
<path d="M142.552 90.4167H130.521L148.385 118.854L161.146 115.937L142.552 90.4167Z" fill="#A03E93"/>
<path d="M204.531 115.208L218.75 90.4167H208.177L191.406 115.208H204.531Z" fill="#A03E93"/>
<path d="M192.5 115.937C203.383 110.597 208.949 105.548 217.656 91.875L208.906 119.948L181.198 135.99L192.5 115.937Z" fill="#6A2D73"/>
<path d="M143.646 124.323L130.521 90.4167C144.186 107.249 151.304 113.76 162.969 119.948L165.156 130.156L143.646 124.323Z" fill="#6A2D73"/>
<path d="M184.479 256.667L281.458 171.354L241.719 184.115L173.542 214.01L105.729 184.115L68.5417 171.354L184.479 256.667Z" fill="#3A1F64"/>
<path d="M176.458 269.792L69.2708 171.354L155.677 216.563L158.958 229.688L176.458 221.667L191.406 229.688L195.417 216.563L281.458 171.354L176.458 269.792Z" fill="#140D2C"/>
<path d="M127.604 113.75C139.755 128.933 147.007 132.958 162.969 129.062C151.698 122.417 144.166 119.009 127.604 113.75Z" fill="#F6D8F0"/>
<path d="M223.125 112.656C211.053 125.563 192.5 131.25 188.854 130.156C185.208 129.062 201.269 120.9 223.125 112.656Z" fill="#F6D8F0"/>
<path d="M130.521 116.302L143.646 123.958L160.781 133.438L152.396 137.813L137.083 150.573L130.521 116.302Z" fill="#E0A9DC"/>
<path d="M206.354 123.958L215.833 118.125L211.458 152.76L176.458 147.656L187.031 130.156L206.354 123.958Z" fill="#E0A9DC"/>
<path d="M198.333 138.177L187.396 129.792C178.849 140.134 176.548 145.449 176.094 154.219L180.833 156.406L198.333 138.177Z" fill="#C15EB0"/>
<path d="M163.698 129.062L174.635 154.219L172.448 159.323L151.302 138.906L159.688 129.792L163.698 129.062Z" fill="#C15EB0"/>
<path d="M133.438 118.125L127.24 113.75L136.719 146.198L146.563 138.906L133.438 118.125Z" fill="#C15EB0"/>
<path d="M212.552 146.198L203.073 138.906L215.833 118.125L223.125 112.656L212.552 146.198Z" fill="#C15EB0"/>
<path d="M148.75 138.542L141.458 122.865C148.61 126.84 152.948 128.503 161.875 129.427L148.75 138.542Z" fill="#D173C7"/>
<path d="M211.094 121.042C202.285 126.358 197.494 128.443 189.219 130.521L200.885 138.542L211.094 121.042Z" fill="#D173C7"/>
<path d="M111.198 169.531L92.9688 135.99L139.271 160.781L203.802 165.521L256.667 135.99L227.865 186.667L169.167 199.427L111.198 169.531Z" fill="#865395"/>
<path d="M203.437 173.906L182.292 200.156H165.885L146.927 175.365L141.094 157.5H156.771L169.896 173.906L171.719 177.552V154.583H176.823V175.365L195.417 157.5L209.635 156.406L203.437 173.906Z" fill="#9147C0"/>
<path d="M198.698 169.896C198.536 173.397 192.777 174.848 179.74 177.187V174.635L192.135 164.427H198.698V169.896Z" fill="#471878"/>
<path d="M159.323 164.427L169.896 177.187C155.502 174.086 148.968 171.842 147.656 164.427H159.323Z" fill="#471878"/>
<path d="M160.417 168.073L150.937 165.156H149.115C149.993 169.362 150.573 172.083 161.146 173.906L162.072 173.559C163.108 173.171 163.538 171.938 162.969 170.99L160.417 168.073Z" fill="#ED91E8"/>
<path d="M187.031 173.906V170.99L192.135 166.615L194.46 168.761L196.875 166.615H199.062C199.393 173.785 195.426 174.236 187.031 173.906Z" fill="#ED91E8"/>
<path d="M173.177 154.219L151.302 138.177L156.042 159.323L173.177 175.729V154.219Z" fill="#C79DE5"/>
<path d="M176.823 175.729V154.219L199.792 138.177V154.219L176.823 175.729Z" fill="#C79DE5"/>
<path d="M162.969 170.26C160.257 165.6 158.046 163.916 152.031 163.698C152.091 169.255 152.232 172.294 162.969 170.26Z" fill="#1D0431"/>
<path d="M197.24 165.521C198.143 170.53 195.799 171.498 187.031 170.26C190.62 165.75 192.858 164.7 197.24 165.521Z" fill="#1D0431"/>
<path d="M175 158.229L163.333 129.062L165.521 119.583L175 118.49L191.042 111.562L186.302 129.062L175 158.229Z" fill="#5A3390"/>
<path d="M238.437 168.802L202.344 186.667L186.667 196.51L194.687 207.812L217.656 200.156L238.437 168.802Z" fill="#702F95"/>
<path d="M113.385 169.896L147.656 186.667L164.792 198.333L153.854 206.354L132.708 192.865L113.385 169.896Z" fill="#702F95"/>
<path d="M147.292 171.719C172.285 183.651 170.995 193.605 159.688 213.281L158.229 216.198L138.542 159.687C135.419 158.257 134.692 155.962 134.531 150.208L151.302 137.812L155.312 142.917L144.375 159.687L147.292 171.719Z" fill="#CFACEC"/>
<path d="M215.469 150.208L190.312 216.198C180.954 194.217 176.934 182.308 201.25 171.719L204.896 161.146L205.99 160.052L196.875 140L199.792 137.812L215.469 150.208Z" fill="#CFACEC"/>
<path d="M209.635 160.417L197.24 138.906L187.031 162.604L180.104 172.083L192.135 162.604L209.635 160.417Z" fill="#EFECF7"/>
<path d="M161.875 164.062L152.031 138.906L147.292 146.927L144.375 156.771L152.031 161.146L161.875 164.062Z" fill="#EFECF7"/>
<path d="M170.625 176.094L169.167 191.042L173.542 198.698V176.094L160.781 161.51L159.323 162.604L147.292 147.292L138.177 160.781L159.323 163.333L170.625 176.094Z" fill="#D8C7E9"/>
<path d="M180.833 191.406L175.729 198.698L175.365 175L190.677 161.875L202.344 146.927L210 160.781L190.312 163.333L178.646 174.635L180.833 191.406Z" fill="#D8C7E9"/>
<path d="M175 118.49L163.698 129.062C131.946 72.9624 132.935 69.3678 134.531 62.7083L145.104 76.5625L142.917 83.8541L175 118.49L207.448 83.8541V76.5625L215.104 62.7083C214.944 84.9038 205.528 100.475 186.302 129.062L175 118.49Z" fill="#7A56BA"/>
<path d="M181.198 191.042L175 198.698L189.948 217.292C191.582 213.047 188.884 206.369 181.198 191.042Z" fill="#EFECF3"/>
<path d="M174.635 198.698L169.167 191.042C159.711 211.155 159.131 214.721 160.417 217.292L174.635 198.698Z" fill="#EFECF3"/>
<path d="M188.854 215.104L175 198.333L161.51 214.01L188.854 215.104Z" fill="#B9ACE2"/>
<path d="M178.646 222.396L182.403 215.194C182.805 214.425 183.439 213.801 184.215 213.413C186.201 212.42 188.752 212.321 190.159 214.038C193.128 217.66 189.938 221.921 187.396 227.865L178.646 222.396Z" fill="#DECFF6"/>
<path d="M160.417 226.771L169.896 224.583L170.26 216.198L163.757 212.946C163.239 212.687 162.667 212.552 162.088 212.552C160.334 212.552 158.494 213.263 157.945 214.929C157.042 217.666 158.046 221.053 160.417 226.771Z" fill="#DECFF6"/>
<path d="M184.479 213.646H165.885L169.167 224.948L179.01 225.677L184.479 213.646Z" fill="#391B7D"/>
<path d="M180.104 222.396L187.76 227.865L175 234.792L160.417 226.042L168.438 222.396L175 234.792L180.104 222.396Z" fill="#9E6AD8"/>
<path d="M168.438 222.396H179.74H180.469L175 234.792L168.438 222.396Z" fill="#44238C"/>
<path d="M178.281 215.469H172.083L171.354 217.656L173.906 219.115H178.281V215.469Z" fill="#8162CA"/>
<path d="M220.208 168.802L204.896 185.573L210 189.583L238.437 168.802C230.854 168.174 223.921 167.877 211.671 167.353L211.458 167.344L220.208 168.802Z" fill="#C066C0"/>
<path d="M109.01 167.344H135.99L130.156 169.531L145.833 185.573L144.01 189.583L109.01 167.344Z" fill="#C066C0"/>
<path d="M113.021 169.896L120.313 180.104L135.26 203.073H149.844L113.021 169.896Z" fill="#D06EC3"/>
<path d="M216.198 203.073L238.073 169.896L200.885 203.073H216.198Z" fill="#D06EC3"/>
<path d="M106.823 186.302L120.312 180.833L142.917 206.719L106.823 186.302Z" fill="#E695D1"/>
<path d="M241.354 184.115L230.417 180.833L215.104 204.167L241.354 184.115Z" fill="#E695D1"/>
<path d="M92.2396 300.052L104.635 325.938C157.668 304.342 188.566 304.448 245.729 325.938L257.396 300.052H281.094L290.573 273.802L78.3854 260.677L67.8125 300.052H92.2396Z" fill="#3B1E60"/>
<rect x="167.708" y="253.021" width="16.7708" height="37.1875" fill="#45308C"/>
<path d="M45.9375 288.75L44.4792 281.094L42.6562 264.687L48.125 240.99L99.5312 242.083L109.74 300.052H99.5312L89.6875 287.292L71.0938 300.052L45.9375 288.75Z" fill="url(#paint6_linear_4_25)"/>
<path d="M262.135 287.292L242.083 300.052H236.979L246.458 258.125L302.24 251.927L307.344 280.365L304.427 290.937L281.094 300.052L262.135 287.292Z" fill="url(#paint7_linear_4_25)"/>
<path d="M37.1875 255.573C43.0179 250.013 37.2435 240.4 12.3958 212.917C21.3675 232.441 26.2592 243.159 28.0729 250.833H23.3333L44.1146 279.635L43.0208 281.823L68.5417 285.104L37.1875 255.573Z" fill="url(#paint8_radial_4_25)"/>
<path d="M305.885 280.365L281.094 283.646L312.813 256.667C307.63 247.823 320.16 234.556 339.427 212.552L320.104 248.281L326.667 250.833L305.885 280.365Z" fill="url(#paint9_radial_4_25)"/>
<path d="M77.6562 259.219L41.9271 236.979C39.3557 237.535 38.7668 239.693 44.1146 257.396L73.6458 264.323L77.6562 259.219Z" fill="#8E5D95"/>
<path d="M304.062 258.854L310.26 237.708L276.354 255.573L267.604 265.781L304.062 258.854Z" fill="#8E5D95"/>
<path d="M276.719 264.687L279.271 220.208C245.899 240.528 240.365 251.864 253.75 271.979L276.719 264.687Z" fill="#4B246B"/>
<path d="M100.99 278.177L71.8229 219.844L73.6458 263.958L100.99 278.177Z" fill="#4B246B"/>
<path d="M178.646 278.542L183.385 254.844L194.688 247.188L185.573 278.542H178.646Z" fill="#6551B4"/>
<path d="M168.073 254.844L157.5 253.75L161.875 281.458L173.177 287.292L168.073 254.844Z" fill="#6551B4"/>
<path d="M173.542 288.021V253.021V252.656L152.031 253.021L162.604 288.021H173.542Z" fill="#53409D"/>
<path d="M176.458 288.021V253.021V252.656L197.24 253.021L189.219 281.458L176.458 288.021Z" fill="#53409D"/>
<path d="M179.375 286.198L190.677 255.573L210.729 249.74L201.615 278.177L179.375 286.198Z" fill="#7B68C1"/>
<path d="M172.083 288.385L161.875 255.573L140.729 249.74L143.646 275.26L172.083 288.385Z" fill="#7B68C1"/>
<path d="M157.865 228.958L172.448 251.198L135.26 249.375L115.938 216.198L157.865 228.958Z" fill="#341F62"/>
<path d="M191.771 230.052L177.552 251.198L228.229 240.99L233.333 218.385L191.771 230.052Z" fill="#341F62"/>
<path d="M173.542 252.656L161.875 255.573L145.833 236.25L173.542 252.656Z" fill="#4A3590"/>
<path d="M190.677 255.573L206.719 234.427L176.458 252.656L190.677 255.573Z" fill="#4A3590"/>
<path d="M146.198 236.25L134.167 229.688L143.646 257.396L161.875 255.573L146.198 236.25Z" fill="#6048A6"/>
<path d="M207.083 255.573L215.104 229.688L206.719 234.427L190.677 255.573H207.083Z" fill="#6048A6"/>
<path d="M208.177 325.208L175.365 349.635L142.187 325.208H104.635L109.01 292.396H240.26L245.729 325.208H208.177Z" fill="#422A7E"/>
<path d="M157.865 298.229L164.427 328.49C142.692 325.064 130.234 315.743 109.359 300.126L109.351 300.12C108.522 299.5 107.68 298.869 106.823 298.229L71.8229 219.844L97.7083 237.344L114.479 245C107.648 255.749 139.635 298.229 106.823 298.229H157.865Z" fill="url(#paint10_linear_4_25)"/>
<path d="M185.573 326.302L190.677 298.229H241.354C216.562 280 240.347 259.287 234.427 245L255.937 237.344L278.177 219.844L241.354 298.229C209.338 324.849 198.692 328.597 185.573 326.302Z" fill="url(#paint11_linear_4_25)"/>
<path d="M152.031 298.594H108.646C108.346 275.009 107.427 261.96 116.302 236.25L152.031 298.594Z" fill="#C987D1"/>
<path d="M241.354 298.229L193.958 298.594L232.969 236.25C238.265 250.384 238.61 266.142 241.354 298.229Z" fill="#C987D1"/>
<path d="M116.302 232.604L71.0938 218.75L93.3333 246.823L116.302 244.271V232.604Z" fill="#F3BBDE"/>
<path d="M257.031 246.094L279.271 219.844L234.062 231.875V244.271L257.031 246.094Z" fill="#F3BBDE"/>
<path d="M214.74 230.052L205.625 260.312L234.062 236.25V216.927L214.74 230.052Z" fill="#9A76CE"/>
<path d="M116.667 237.708V216.927L134.531 230.052L146.198 261.042L116.667 237.708Z" fill="#9A76CE"/>
<path d="M192.135 302.604L174.271 288.385L157.135 302.604L174.271 321.927L192.135 302.604Z" fill="#AF86D4"/>
<path d="M174.271 288.385L142.552 257.396C138.417 272.768 141.207 282.573 157.135 302.604H192.135C205.178 287.114 208.92 277.24 208.906 257.396L174.271 288.385Z" fill="url(#paint12_linear_4_25)"/>
<path d="M142.552 257.76L116.302 232.604L111.927 231.146L129.427 283.281L157.865 302.24C151.621 288.036 148.335 277.496 142.552 257.76Z" fill="#E9D0EE"/>
<path d="M208.177 257.76L191.771 302.24L220.938 283.281L238.438 230.781L234.062 231.875L208.177 257.76Z" fill="#E9D0EE"/>
<path d="M75.1042 154.583L42.6562 186.302L46.6667 76.5625L123.958 72.9167L128.333 76.5625L65.625 117.031L75.1042 154.583Z" fill="#181130"/>
<path d="M225.312 72.9167L222.031 76.5625L284.74 118.49L273.802 151.302L308.802 186.302L302.24 76.5625L225.312 72.9167Z" fill="#181130"/>
<defs>
<linearGradient id="paint0_linear_4_25" x1="173.542" y1="4.73956" x2="173.542" y2="70" gradientUnits="userSpaceOnUse">
<stop stop-color="#E24884"/>
<stop offset="0.275792" stop-color="#DD4B7D"/>
<stop offset="0.520708" stop-color="#B12763"/>
</linearGradient>
<linearGradient id="paint1_linear_4_25" x1="172.995" y1="76.5625" x2="172.995" y2="187.031" gradientUnits="userSpaceOnUse">
<stop stop-color="#FD5582"/>
<stop offset="1" stop-color="#F8B68A"/>
</linearGradient>
<linearGradient id="paint2_linear_4_25" x1="172.995" y1="76.5625" x2="172.995" y2="187.031" gradientUnits="userSpaceOnUse">
<stop stop-color="#FD5582"/>
<stop offset="1" stop-color="#F8B68A"/>
</linearGradient>
<radialGradient id="paint3_radial_4_25" cx="0" cy="0" r="1" gradientUnits="userSpaceOnUse" gradientTransform="translate(179.375 164.427) rotate(92.2635) scale(92.3116 300.338)">
<stop offset="0.429868" stop-color="#821D5B"/>
<stop offset="0.805847" stop-color="#E04876"/>
</radialGradient>
<radialGradient id="paint4_radial_4_25" cx="0" cy="0" r="1" gradientUnits="userSpaceOnUse" gradientTransform="translate(179.375 164.427) rotate(92.2635) scale(92.3116 300.338)">
<stop offset="0.429868" stop-color="#821D5B"/>
<stop offset="0.805847" stop-color="#E04876"/>
</radialGradient>
<linearGradient id="paint5_linear_4_25" x1="162.604" y1="97.3438" x2="187.396" y2="97.3438" gradientUnits="userSpaceOnUse">
<stop offset="0.397558" stop-color="#A455D0"/>
<stop offset="0.397658" stop-color="#BA83D9"/>
<stop offset="0.593298" stop-color="#BE8ADA"/>
<stop offset="0.593398" stop-color="#954BBC"/>
</linearGradient>
<linearGradient id="paint6_linear_4_25" x1="300.781" y1="253.75" x2="46.6667" y2="290.208" gradientUnits="userSpaceOnUse">
<stop stop-color="#4F3485"/>
<stop offset="0.0727539" stop-color="#371B58"/>
<stop offset="0.885417" stop-color="#371B59"/>
<stop offset="1" stop-color="#4F3485"/>
</linearGradient>
<linearGradient id="paint7_linear_4_25" x1="300.781" y1="253.75" x2="46.6667" y2="290.208" gradientUnits="userSpaceOnUse">
<stop stop-color="#4F3485"/>
<stop offset="0.0727539" stop-color="#371B58"/>
<stop offset="0.885417" stop-color="#371B59"/>
<stop offset="1" stop-color="#4F3485"/>
</linearGradient>
<radialGradient id="paint8_radial_4_25" cx="0" cy="0" r="1" gradientUnits="userSpaceOnUse" gradientTransform="translate(196.51 220.208) rotate(90.9738) scale(128.717 280.5)">
<stop stop-color="#996DAE"/>
<stop offset="0.398354" stop-color="#A54DA3"/>
</radialGradient>
<radialGradient id="paint9_radial_4_25" cx="0" cy="0" r="1" gradientUnits="userSpaceOnUse" gradientTransform="translate(196.51 220.208) rotate(90.9738) scale(128.717 280.5)">
<stop stop-color="#996DAE"/>
<stop offset="0.398354" stop-color="#A54DA3"/>
</radialGradient>
<linearGradient id="paint10_linear_4_25" x1="175" y1="219.844" x2="175" y2="328.49" gradientUnits="userSpaceOnUse">
<stop stop-color="#8C50A0"/>
<stop offset="1" stop-color="#A680D3"/>
</linearGradient>
<linearGradient id="paint11_linear_4_25" x1="175" y1="219.844" x2="175" y2="328.49" gradientUnits="userSpaceOnUse">
<stop stop-color="#8C50A0"/>
<stop offset="1" stop-color="#A680D3"/>
</linearGradient>
<linearGradient id="paint12_linear_4_25" x1="139.271" y1="280" x2="205.99" y2="280" gradientUnits="userSpaceOnUse">
<stop stop-color="#D5B6EB" stop-opacity="0.978495"/>
<stop offset="0.380208" stop-color="#E5DCF5" stop-opacity="0.999131"/>
<stop offset="0.666667" stop-color="#E6DEF5"/>
<stop offset="1" stop-color="#D5B5EB"/>
</linearGradient>
</defs>
</svg>
